<?xml version="1.0" encoding="UTF-8"?>
<!DOCTYPE svg  PUBLIC '-//W3C//DTD SVG 1.1//EN'  'http://www.w3.org/Graphics/SVG/1.1/DTD/svg11.dtd'>
<svg width="297mm" height="210mm" clip-rule="evenodd" fill-rule="evenodd" image-rendering="optimizeQuality" shape-rendering="geometricPrecision" text-rendering="geometricPrecision" version="1.1" viewBox="0 0 29700 21000" xml:space="preserve" xmlns="http://www.w3.org/2000/svg">
 <defs>
  <style type="text/css">
    .fil2 {fill:#1A1617}
    .fil6 {fill:#383032}
    .fil3 {fill:#3D3D3D}
    .fil5 {fill:#E6C6AA}
    .fil1 {fill:#E6E6E6}
    .fil8 {fill:#F23034}
    .fil4 {fill:#F6D5B8}
    .fil7 {fill:white}
    .fil0 {fill:url(#a)}
  </style>
  <linearGradient id="a" x1="15728" x2="15858" y1="3765.8" y2="17338" gradientUnits="userSpaceOnUse">
   <stop stop-color="#fff" offset="0"/>
   <stop stop-color="#EB9494" offset="1"/>
  </linearGradient>
 </defs>
  <rect class="fil0" x="2537" y="975" width="26104" height="14091"/>
   <circle class="fil1" cx="9456" cy="7965" r="5490"/>
    <path class="fil2" d="m7759 8867c-19 15-47 21-119 46-378 131-754 286-1128 469-236 115-213 73-315 312-263 612-513 1252-697 1867 619 667 1405 1177 2291 1464 333 90 679 164 1032 225 190 22 384 35 580 37h121c191-3 379-15 565-37 352-61 699-135 1032-225 886-287 1671-797 2291-1464-184-615-434-1255-697-1867-102-239-79-197-316-312-373-183-749-338-1127-469-51-18-79-26-99-34l-5-12c-72-124-157-239-254-347 459 32 832-82 1066-365 226-275 239-479 251-812 23-653-27-1355-207-2009-175-639-473-1232-946-1688-453-436-982-780-1622-780-451 0-842 83-1118 520-272-35-420 86-601 260-473 456-771 1049-946 1688-180 654-230 1356-207 2009 12 333 24 537 251 812 250 303 660 412 1163 357h6c-93 106-174 225-245 355z"/>
    <path class="fil3" d="m7998 8513c99-106 217-205 349-299l69-320c-239-278-419-650-509-1075-181 4-372-207-446-509-60-240-64-434 3-557 114-209 318-79 399 76 75-634 344-1178 721-1512 273 308 596 563 1021 610 813 90 1243 379 1439 859 92-134 269-222 373-33 66 123 62 317 3 557-70 284-243 488-414 507-88 411-258 772-485 1047l-5 30 73 337c114 77 228 174 320 291 461 33 836-81 1071-365 226-275 239-479 251-812 23-653-27-1356-207-2010-175-639-473-1232-946-1687-453-436-982-781-1622-781-451 0-842 84-1118 520-272-35-420 87-601 261-473 455-771 1048-946 1687-180 654-230 1357-207 2010 12 333 24 537 251 812 250 303 660 412 1163 356z"/>
    <path class="fil4" d="m11044 5786c92-134 269-222 373-33 66 123 62 317 3 557-70 284-243 488-414 507-88 411-258 772-485 1047l-5 30 70 321-6-1c6 19 12 37 17 55l3 11c24 88 47 181 67 280 139 797-146 1543-482 2316-186 198-465 351-719 340-258 11-543-147-728-351-313-719-580-1416-500-2153 24-155 58-301 95-432l14-66 69-320c-239-278-419-650-509-1075-181 4-372-207-446-509-60-240-64-434 3-557 114-209 318-79 399 76 75-634 344-1178 721-1512 273 308 596 563 1021 610 813 90 1243 379 1439 859z"/>
    <path class="fil5" d="m7893 6751c-36-166-55-334-59-503-3-109 1-217 11-326-9-12-18-24-29-36-34-37-96-85-152-81-42 4-69 38-86 70-71 128-24 343 14 474 33 112 91 228 176 314 33 34 77 68 125 88zm3116 0c36-166 55-334 59-503 3-109-1-217-11-326 9-12 18-24 29-36 34-37 96-85 152-81 42 4 69 38 87 70 70 128 23 343-15 474-33 112-91 228-176 314-33 34-76 68-125 88z"/>
    <path class="fil5" d="m8416 7894zm2170 321l-70-321 5-30c-284 344-657 553-1065 553-396 0-759-197-1040-523l-20 91c117 158 251 283 400 381 201 131 428 213 676 258 257 47 536 54 829 36 76-5 64-18 84 57 243 953-171 2507-1638 2158 185 199 465 352 719 341 254 11 533-142 719-340 364-838 703-1746 401-2661z"/>
    <path class="fil5" d="m11044 5786c-196-480-626-769-1439-859-425-47-748-302-1021-610-377 334-646 878-721 1511 217-448 388-962 710-1278 418 989 1839 369 2471 1236z"/>
    <path class="fil6" d="m11168 8867c50 109 93 221 127 336s59 234 74 356c4 34 9 53 8 71 0 17-7 34-26 62-38 58-83 111-136 162-53 50-113 97-179 142l238 254 239 254-1025 1308-1024 1308-1025-1308-1025-1308 239-254 238-254c-66-45-126-92-179-142-52-51-98-104-136-162-19-28-26-45-26-62-1-18 4-37 8-71 15-122 40-241 74-356s77-227 127-336c74-135 158-258 256-368 97-110 207-205 332-285-263 796-67 1534 236 2284 303 751 714 1515 881 2365 166-850 578-1614 883-2364 305-751 502-1488 239-2284 122 94 231 194 328 303 97 108 182 224 254 349z"/>
    <path class="fil7" d="m9464 12863c138-708 446-1356 721-1987-186 198-465 351-719 340-254 11-534-142-719-341-3-3-6-7-9-10 275 634 586 1286 726 1998z"/>
   <circle class="fil1" cx="21723" cy="8076" r="5490"/>
   <path class="fil2" d="m23954 5647c76 135 71 348 4 613-79 312-274 536-467 558-98 451-291 849-547 1151 338 268 619 569 818 918 501 160 992 427 1487 651 125 57 101 37 157 166 228 528 390 1066 589 1598-987 1275-2532 2096-4270 2096-1740 0-3288-824-4275-2104 230-490 366-1079 610-1595 67-140 45-118 184-179 477-208 927-445 1445-608 229-392 519-701 878-914-269-305-469-712-571-1179-204 4-420-227-504-559-67-265-71-478 4-613 40-70 88-105 139-116-300-1070 54-1813 814-2259 1061-807 2414-737 3229 391 382 529 444 1314 276 1984z"/>
   <path class="fil3" d="m21703 2746c-430 49-862 227-1254 526-760 446-1114 1189-814 2259 117-25 248 80 311 199 14 28 28 72 23 103 6 141 24 282 55 412 10 42 88 86 78 22-37-234-8-509-47-730l-36-197c133-528 397-976 740-1273 309 339 673 620 1153 671 828 89 1304 358 1551 799-39 221-11 496-47 730-10 64 68 20 78-22 31-130 22-270 28-411-14-50-15-108 12-151 95-153 304-244 420-36 168-670 106-1455-276-1984-399-552-927-851-1487-917h-488z"/>
   <path class="fil4" d="m19635 5531zm-75 37c-23 19-44 45-64 79-75 135-71 348-4 613 58 226 176 406 311 496 62 42 128 65 193 63 102 467 302 874 571 1179-33 96-64 227-92 358 359 556 789 880 1250 880 486 0 936-358 1306-967-33-134-65-242-87-300 256-302 449-700 547-1151 53-6 106-28 157-62 135-90 253-270 310-496 67-265 72-478-4-613-19-34-40-60-63-79-118-98-278-13-357 115-27 43-26 101-12 151-6 141 3 281-28 411-10 42-88 86-78 22 36-234 8-509 47-730-247-441-723-710-1551-799-480-51-844-332-1153-671-343 297-607 745-740 1273l36 197c39 221 10 496 47 730 10 64-68 20-78-22-31-130-49-271-55-412 5-31-9-75-23-103-63-119-194-224-311-199-26 5-51 17-75 37z"/>
   <path class="fil5" d="m19980 6711c-40-183-62-368-66-554-3-119 1-239 12-358-10-14-20-27-32-40-39-41-109-94-172-88-47 3-78 41-98 76-79 141-26 378 17 522 37 123 102 251 198 345 37 37 87 75 141 97zm3515 0c40-183 62-368 66-554 4-119-1-239-12-358 10-14 20-27 32-40 39-41 109-94 172-88 47 3 78 41 98 76 79 141 26 378-17 522-36 123-102 251-198 345-37 37-87 75-141 97z"/>
   <path class="fil6" d="m20567 8003c-678 1903 770 3688 1100 5395-54-1-108-2-162-5l-2186-2743 624-489c-136-190-389-281-501-477 105-248 97-530 247-767 229-392 519-701 878-914zm2493 62c287 243 526 514 702 822 26 8 51 17 76 25l3 5c150 237 142 519 247 767-112 196-364 287-501 477l624 489-2182 2740c-55 3-110 5-166 6 331-1706 1778-3491 1100-5393 33 20 65 40 97 62z"/>
   <path class="fil5" d="m22944 7969c5-6-474 540-1196 540-503 0-1178-508-1178-507l-21 89c128 149 272 268 430 363 234 140 499 227 787 275 277 46 576 56 888 42 133-139 259-308 377-502-32-133-65-242-87-300z"/>
   <path class="fil7" d="m21725 9236c-461 0-891-324-1250-880 28-131 59-262 92-358-439 1232 13 2414 476 3558 253 625 509 1238 625 1842h57c46 0 92-1 137-2 108-557 335-1124 568-1699 481-1188 990-2417 533-3699 24 15 47 29 71 44-30-24-60-49-90-73 22 58 54 166 87 300-118 194-244 363-377 502-284 299-598 465-929 465z"/>
   <path class="fil8" d="m21731 9339l-579 923 195 281-304 1016c252 624 508 1236 624 1839h58c46 0 92-1 138-2 108-556 334-1121 567-1696 31-84-330-1144-330-1144l195-343-564-874z"/>
   <path class="fil1" d="m21731 9359l-902 1224-384-890c108 636 354 1260 602 1873l300-1003-195-281 579-923zm908 1242l-908-1242 564 874-195 343s317 931 331 1117c273-671 553-1356 663-2056l-455 964z"/>
   <path class="fil5" d="m21912 4738c-480-51-844-332-1153-671-343 297-607 745-740 1273 245-376 404-858 735-1127 447 918 2007 580 2709 1324-247-441-723-710-1551-799z"/>
</svg>
